# xmcd CD database file
#
# Track frame offsets:
#	150
#	21288
#	39512
#	44496
#	56189
#	66904
#	82954
#	96354
#	108714
#	126573
#	141740
#	215826
#	242025
#	255959
#
# Disc length: 4446 seconds
#
# Revision: 0
# Processed by: cddbd v1.5.1PL0 Copyright (c) Steve Scherf et al.
# Submitted via: CDex 1.51
#
DISCID=dd115c0e
DTITLE=The Roots - Nagoya Blue Note: September 7, 2004
DYEAR=2004
DGENRE=Hip-Hop
TTITLE0=Start
TTITLE1=Hardware
TTITLE2=t@w
TTITLE3=Boom Shake The Room
TTITLE4=She Wanna No
TTITLE5=Baseline Pumpin
TTITLE6=Head So Bald I Can Read Your Mind
TTITLE7=Rock The Mike
TTITLE8=Ugly And Bloody
TTITLE9=Pan Ick
TTITLE10=H20
TTITLE11=Don't Say A Mofon Thang Or I Will Kill Your Ass
TTITLE12=See In George Bush 4life
TTITLE13=Smokin Pot
EXTD=YEAR: 2004
EXTT0=
EXTT1=
EXTT2=
EXTT3=
EXTT4=
EXTT5=
EXTT6=
EXTT7=
EXTT8=
EXTT9=
EXTT10=
EXTT11=
EXTT12=
EXTT13=
PLAYORDER=
